<svg id="Download" x="0px" y="0px" viewBox="0 0 392.6 392.6" style="enable-background:new 0 0 392.6 392.6" xml:space="preserve" xmlns="http://www.w3.org/2000/svg"><rect
          fill="#1d253c"
          x="0"
          y="0"
          width="392.6"
          height="392.6" />
        
      <style>
        svg#Download {
          fill: #f2e4d6;
        }
        
      </style>
    <g><path d="M137,183.8c-5.4-0.1-9.1-0.1-13.6,0c0,5.1,0,10.8,0,15.8c4.5-0.3,9.1-0.5,13.6-0.8c1.1-0.1,1.5-0.4,1.5-1.6 c0-3.9,0-7.9,0-11.8C138.4,184.3,138.1,183.7,137,183.8z"></path><g><path d="M295.7,158.3h-199c-0.2,0-0.4,0.2-0.4,0.4V252c0,0.3,0.3,0.4,0.5,0.3c20.8-8,57.6-13.4,99.5-13.4 c41.7,0,78.3,5.3,99.2,13.2c0.2,0.1,0.5-0.1,0.5-0.3v-93.1C296.1,158.5,295.9,158.3,295.7,158.3z M151.2,198.6 c0,7.2-3.5,10.8-10.6,11.3c-5.7,0.4-11.5,0.9-17.2,1.4c0,6,0,12,0,18.1c0,0.2-0.1,0.3-0.3,0.4c-4,0.5-8,1.1-12,1.8 c-0.2,0-0.4-0.1-0.4-0.4v-58c0-0.2,0.2-0.4,0.4-0.4h29.6c7.2,0,10.6,3.4,10.6,10.6C151.2,188.4,151.2,193.5,151.2,198.6z  M195,173.2l-2.8,10.3c0,0.2-0.2,0.3-0.4,0.3c-6.9,0-14.1-0.1-21,0c0,3.2,0.1,6,0.1,9.2c6.7,0,12.1-0.1,18.2-0.1 c0.2,0,0.4,0.2,0.4,0.5c-0.4,1.6-1.9,6.9-2.8,9.9c0,0.1-0.2,0.2-0.3,0.2c-5.2,0.1-10.4,0.2-15.6,0.3c0,3.6,0,7.2,0,10.7 c7.9-0.3,15.8-0.5,23.8-0.5c0.2,0,0.4,0.2,0.4,0.5l-2.7,10c0,0.2-0.2,0.3-0.3,0.3c-11,0.1-22.4,0.5-33.5,1.3 c-0.2,0-0.4-0.2-0.4-0.4c0-17.5,0.1-35.1,0.1-52.6c0-0.2,0.2-0.4,0.4-0.4h36.2C194.9,172.7,195,172.9,195,173.2z M240,183.4 c0,0.2-0.2,0.4-0.4,0.4c-6.7,0-9.9,0-13.6,0c0,13.8,0,27.5,0.1,41.3c0,0.2-0.2,0.4-0.4,0.4c-4-0.2-8-0.4-12.1-0.5 c-0.2,0-0.4-0.2-0.4-0.4c0-13.7,0-27.1,0-40.8c-4.6,0-9.1,0-13.7,0c-0.2,0-0.4-0.2-0.4-0.4c0-3.4,0-7,0-10.4 c0-0.2,0.2-0.4,0.4-0.4h40c0.2,0,0.4,0.2,0.4,0.4L240,183.4L240,183.4z M282.9,173.2l-2.8,10.3c0,0.2-0.2,0.3-0.4,0.3 c-10.3,0-12.5,0-21.5,0c0,3.4,0,7.4,0,10.8c5.7,0.4,10.9,0.6,17.9,1.1c0.2,0,0.4,0.2,0.3,0.5l-2.6,10.2c0,0.2-0.2,0.3-0.4,0.3 c-6.2-0.7-8.4-0.8-15.3-1.4c0,3.8,0,8,0,11.8c8.4,0.9,16,1.8,23.2,3c0.2,0,0.4,0.2,0.3,0.5l-2.8,10.2c0,0.2-0.2,0.3-0.4,0.3 c-10.8-1.6-21.9-2.9-32.8-3.9c-0.2,0-0.3-0.2-0.3-0.4c0-17.8-0.1-35.6-0.1-53.4c0-0.2,0.2-0.4,0.4-0.4h36.7 C282.8,172.7,282.9,172.9,282.9,173.2z"></path></g><g id="secondary"><rect x="21.6" y="220.6" width="51.1" height="5.3"></rect><path d="M365.8,212.2c3.4,0,5-1.6,5-5v-15.5c0-3.4-1.6-5-5-5h-9.4c-3.4,0-5,1.6-5,5v15.5c0,3.4,1.6,5,5,5H365.8z M357.5,192.6 c0-0.5,0.2-0.7,0.7-0.7h5.9c0.5,0,0.7,0.1,0.7,0.7v13.7c0,0.5-0.2,0.7-0.7,0.7h-5.9c-0.5,0-0.7-0.2-0.7-0.7V192.6z"></path><g><path d="M33.1,195.9l-6.2,2.2c-3.3,1.2-5.3,2.3-5.3,5.4v8.6h18.6v-5.3H27.7v-2.3c0-0.7,0.3-0.9,1-1.1l6.2-2.2 c3.3-1.2,5.3-2.4,5.3-5.4v-4.1c0-3.4-1.7-5-5-5H27c-3.4,0-5,1.7-5,5v3h5.9v-2.2c0-0.5,0.1-0.7,0.7-0.7h4.9c0.5,0,0.7,0.1,0.7,0.7 v2.3C34.1,195.5,33.8,195.7,33.1,195.9z"></path><path d="M67.5,212.2c3.4,0,5-1.6,5-5v-15.5c0-3.4-1.6-5-5-5h-9.4c-3.4,0-5,1.6-5,5v15.5c0,3.4,1.6,5,5,5H67.5z M59.2,192.6 c0-0.5,0.2-0.7,0.7-0.7h5.9c0.5,0,0.7,0.1,0.7,0.7v13.7c0,0.5-0.2,0.7-0.7,0.7h-5.9c-0.5,0-0.7-0.2-0.7-0.7V192.6z"></path><rect x="21.6" y="172.7" width="51.1" height="5.3"></rect><path d="M331.4,195.9l-6.2,2.2c-3.3,1.2-5.3,2.3-5.3,5.4v8.6h18.6v-5.3H326v-2.3c0-0.7,0.3-0.9,1-1.1l6.2-2.2 c3.3-1.2,5.3-2.4,5.3-5.4v-4.1c0-3.4-1.7-5-5-5h-8.1c-3.4,0-5,1.7-5,5v3h5.9v-2.2c0-0.5,0.1-0.7,0.7-0.7h4.9 c0.5,0,0.7,0.1,0.7,0.7v2.3C332.4,195.5,332.1,195.7,331.4,195.9z"></path><rect x="319.9" y="172.7" width="51.1" height="5.3"></rect><rect x="319.9" y="220.6" width="51.1" height="5.3"></rect></g></g></g></svg>